# xmcd
#
# Track frame offsets:
#	150
#	15788
#	32688
#	49769
#	80298
#	105662
#	121440
#	151715
#	172302
#	193290
#	214164
#	232035
#	258420
#
# Disc length: 3720 seconds
# Revision: 0
# Processed by: cddbd v1.5.2PL0 Copyright (c) Steve Scherf et al.
# Submitted via: dBpowerAMP V12.0
#
DISCID=a80e860d
DTITLE=Joe Moss Band - Manifesto
DYEAR=2015
DGENRE=Blues
TTITLE0=Ain't That Love
TTITLE1=Black Boots
TTITLE2=Freedom
TTITLE3=Never Did Anything
TTITLE4=Time To Go
TTITLE5=Homework
TTITLE6=Right Place, Wrong Time
TTITLE7=I'm So Into You
TTITLE8=Rich Folks
TTITLE9=Michael
TTITLE10=Pay Up
TTITLE11=Two Hearts
TTITLE12=Spunk and Honutz
EXTD=
EXTT0=
EXTT1=
EXTT2=
EXTT3=
EXTT4=
EXTT5=
EXTT6=
EXTT7=
EXTT8=
EXTT9=
EXTT10=
EXTT11=
EXTT12=
PLAYORDER=
